<svg xmlns="http://www.w3.org/2000/svg" width="32" height="32" viewBox="0 0 32 32" role="img" aria-labelledby="title desc">
  <title id="title">Team Budget Hierarchy Icon</title>
  <desc id="desc">Central folder branching into three budget blocks for departmental budget control.</desc>
  <defs><linearGradient id="bg" x1="0" y1="0" x2="1" y2="1"><stop offset="0" stop-color="#12095C"/><stop offset="1" stop-color="#05022A"/></linearGradient><linearGradient id="teal" x1="0" y1="0" x2="1" y2="1"><stop offset="0" stop-color="#2FF7DD"/><stop offset="1" stop-color="#0FB8B8"/></linearGradient></defs>
  <rect width="32" height="32" rx="7" fill="url(#bg)"/>
  <path d="M10.1 7.4h5l1.2 1.7h6.2c1 0 1.8.8 1.8 1.8v5.2c0 1-.8 1.8-1.8 1.8H9.7c-1 0-1.8-.8-1.8-1.8V9.6c0-1.2 1-2.2 2.2-2.2z" fill="#fff"/>
  <g fill="url(#teal)"><rect x="11.3" y="13" width="1.9" height="2.3" rx=".45"/><rect x="15" y="12.1" width="1.9" height="3.2" rx=".45"/><rect x="18.7" y="10.8" width="1.9" height="4.5" rx=".45"/></g>
  <g fill="none" stroke="#fff" stroke-width="1.6" stroke-linecap="round" stroke-linejoin="round"><path d="M16 18v3.1"/><path d="M8.7 23.2v-2.1h14.6v2.1"/><path d="M16 21.1v2.1"/></g>
  <g fill="url(#teal)"><rect x="4.7" y="22.2" width="6.3" height="5.3" rx="1.2"/><rect x="12.9" y="22.2" width="6.3" height="5.3" rx="1.2"/><rect x="21" y="22.2" width="6.3" height="5.3" rx="1.2"/></g>
  <g fill="none" stroke="#fff" stroke-width="1.25" stroke-linecap="round"><path d="M7.85 23.4v2.7M6.8 24.1c.2-.8 2.2-.8 2.2.4 0 1.2-2.2.7-2.1 1.5.1.8 1.9.8 2.3.1"/><path d="M16.05 23.4v2.7M15 24.1c.2-.8 2.2-.8 2.2.4 0 1.2-2.2.7-2.1 1.5.1.8 1.9.8 2.3.1"/><path d="M24.15 23.4v2.7M23.1 24.1c.2-.8 2.2-.8 2.2.4 0 1.2-2.2.7-2.1 1.5.1.8 1.9.8 2.3.1"/></g>
</svg>
